<svg width="46" height="46" viewBox="0 0 46 46" fill="none" xmlns="http://www.w3.org/2000/svg">
    <rect width="46" height="46" rx="8" fill="#EFF1F1"/>
    <path d="M23.0205 32.0001C20.4981 32.0001 18.3641 31.1273 16.6185 29.3817C14.8728 27.636 14 25.502 14 22.9796C14 20.6743 14.7517 18.6739 16.2551 16.9784C17.7586 15.2829 19.6796 14.2931 22.0183 14.0092C22.4359 13.959 22.7616 14.1094 22.9955 14.4602C23.2294 14.811 23.221 15.1785 22.9704 15.5627C22.6865 15.997 22.4735 16.4564 22.3315 16.9408C22.1895 17.4253 22.1185 17.9348 22.1185 18.4693C22.1185 19.9727 22.6447 21.2506 23.6971 22.303C24.7495 23.3554 26.0274 23.8816 27.5308 23.8816C28.0487 23.8816 28.5623 23.8065 29.0718 23.6561C29.5813 23.5058 30.0365 23.297 30.4374 23.0297C30.7882 22.7958 31.1474 22.7833 31.5149 22.9921C31.8824 23.2009 32.0411 23.5308 31.991 23.9819C31.7571 26.2871 30.7757 28.1998 29.0468 29.7199C27.3178 31.2401 25.3091 32.0001 23.0205 32.0001Z" fill="#444747"/>
</svg>